<?xml version="1.0" encoding="utf-8"?>
<!-- Generator: Adobe Illustrator 28.0.0, SVG Export Plug-In . SVG Version: 6.00 Build 0)  -->
<svg version="1.1" id="Layer_1" xmlns="http://www.w3.org/2000/svg" xmlns:xlink="http://www.w3.org/1999/xlink" x="0px" y="0px"
	 viewBox="0 0 64 64" style="enable-background:new 0 0 64 64;" xml:space="preserve">
<style type="text/css">
	.st0{fill:#FFFFFF;}
</style>
<g>
	<path class="st0" d="M23.38,24.16h1.3v5.8h-1.3c-0.1,0-0.2,0-0.2,0c-1.9,0.1-3.4,1.7-3.4,3.6c0,2,1.6,3.6,3.6,3.6s3.6-1.6,3.6-3.6
		v-6.9c0-5.2,4.2-9.5,9.5-9.5c0.3,0,0.7,0,1,0.1l-5.7-9.9l-9.7,16.9c0.3,0,0.5-0.1,0.8-0.1C22.98,24.26,23.18,24.16,23.38,24.16z"/>
	<path class="st0" d="M53.28,44.66l-8.1-14.1c-1.5,3.3-4.8,5.7-8.7,5.7h-1.4v-5.8h1.4c2,0,3.6-1.6,3.6-3.6s-1.6-3.6-3.6-3.6
		s-3.6,1.6-3.6,3.6v6.9c0,5.2-4.2,9.5-9.5,9.5c-4,0-7.4-2.5-8.8-6l-4.3,7.5h43V44.66z"/>
</g>
</svg>
