<?xml version="1.0" encoding="utf-8"?>
<!-- Generator: Adobe Illustrator 28.0.0, SVG Export Plug-In . SVG Version: 6.00 Build 0)  -->
<svg version="1.1" id="Layer_1" xmlns="http://www.w3.org/2000/svg" xmlns:xlink="http://www.w3.org/1999/xlink" x="0px" y="0px"
	 viewBox="0 0 64 64" style="enable-background:new 0 0 64 64;" xml:space="preserve">
<style type="text/css">
	.st0{fill:#FFFFFF;}
</style>
<path class="st0" d="M32.39,53.85c-12,0-21.77-9.76-21.77-21.77s9.76-21.77,21.77-21.77s21.77,9.76,21.77,21.77
	S44.39,53.85,32.39,53.85z M32.39,15.32c-9.24,0-16.77,7.52-16.77,16.77s7.52,16.77,16.77,16.77s16.77-7.52,16.77-16.77
	S41.63,15.32,32.39,15.32z"/>
<path class="st0" d="M30.39,36.96c-1.1,0-2-0.9-2-2V20.31c0-1.1,0.9-2,2-2s2,0.9,2,2v14.65C32.39,36.07,31.49,36.96,30.39,36.96z"/>
<path class="st0" d="M42.17,36.96H30.39c-1.1,0-2-0.9-2-2s0.9-2,2-2h11.79c1.1,0,2,0.9,2,2S43.28,36.96,42.17,36.96z"/>
</svg>
