<?xml version="1.0" encoding="UTF-8"?>
<svg id="Layer_1" data-name="Layer 1" xmlns="http://www.w3.org/2000/svg" viewBox="0 0 43.2 55.62">
  <defs>
    <style>
      .cls-1 {
        fill: #fff;
        stroke-width: 0px;
      }
    </style>
  </defs>
  <path class="cls-1" d="m28.3,18.09s-.02.01-.02.01c-.06.23.02.36.12.53.04.17-.08.36-.07.54,0,.12.02.23.07.37h.03c.11-.1.16-.22.18-.35.04-.2-.1-.38-.13-.57.04-.2.03-.4-.18-.53Z"/>
  <path class="cls-1" d="m27.15,23.64c-.07.15-.26.25-.32.41-.04.11-.06.22-.04.36,0,0,.02.01.02.01.24-.13.34-.33.36-.58,0-.14.09-.21.19-.29.07-.09.1-.21.07-.35,0,0-.02-.01-.02-.01-.21.09-.24.25-.26.44Z"/>
  <path class="cls-1" d="m23.37,25.78c-.13.05-.28-.04-.42.03-.08.04-.16.09-.22.2v.02c.22.1.39.05.55-.1.08-.09.17-.07.27-.04.09,0,.17-.06.23-.17,0,0,0-.02,0-.02-.19-.1-.28-.02-.4.09Z"/>
  <path class="cls-1" d="m39.31,7.69c.82.59,1.63,1.19,2.45,1.78-1.94-4.55-6.31-7.97-11.19-8.76.59.32,1.21.57,1.86.76-.43,0-.86,0-1.29-.01l.59,1.07c-2.34-1.24-4.88-2.07-7.35-2.4-5.62-.71-11.25,1.31-15.73,4.59-.68.51-1.36,1.05-1.98,1.65C2.79,10.41.4,15.86.06,21.44c-.95,14.52,9.38,33.26,25.18,34.18-9.9-2.1-16.4-10.7-19.41-19.88-2.97-8.87-2.86-19.28,4.23-26.11,4.29-3.58,10.28-5.79,15.8-4.18,3.99,1.19,8.12,3.77,10.03,7.54,2.34,5.13.04,11.66-4.38,14.98-3.38,2.6-8.47,2.94-12.21,1.14-2.63-1.27-4.01-4-4.08-6.9-.11-2.88,1-6.22,3.74-7.55,2.77-1.26,6.77-.63,8.55,2.06-1.51-3.26-5.78-4.37-9.05-3.34-1.78.57-3.22,1.96-4.14,3.56-2.84,4.99-1.81,11.99,3.39,15,.16.1.33.18.49.27-.24.26-.55.45-.89.56l1.43.82c-.07-.1-.12-.22-.16-.33-.1-.29-.11-.6-.1-.9,3.14,1.59,6.71,1.89,10.16,1.24,3.78-.75,7.11-3.12,9.36-6.18,2.51-3.38,3.85-7.79,3.43-12,.76,1.89,1.31,3.87,1.63,5.89.66-4.79-.71-9.82-3.72-13.61Z"/>
  <path class="cls-1" d="m19.7,34.15l-.98-.57c.22.34.58.59.98.57Z"/>
  <path class="cls-1" d="m16.6,32.84c.23.02.46-.01.68-.08l-2.37-1.36c.19.77.9,1.38,1.69,1.44Z"/>
  <path class="cls-1" d="m39.9,29.07c-.4.37-.89.65-1.08,1.2l.02.02c.21-.1.38-.24.53-.39.24-.22.37-.54.59-.78.28-.19.53-.39.64-.73,0,0-.02-.02-.02-.02-.33.14-.52.4-.68.69Z"/>
</svg>