<?xml version="1.0" encoding="utf-8"?>
<!-- Generator: Adobe Illustrator 28.0.0, SVG Export Plug-In . SVG Version: 6.00 Build 0)  -->
<svg version="1.1" id="Layer_1" xmlns="http://www.w3.org/2000/svg" xmlns:xlink="http://www.w3.org/1999/xlink" x="0px" y="0px"
	 viewBox="0 0 64 64" style="enable-background:new 0 0 64 64;" xml:space="preserve">
<style type="text/css">
	.st0{fill:#FFFFFF;}
</style>
<rect x="19.48" y="19" class="st0" width="4.4" height="29.8"/>
<path class="st0" d="M23.88,39.3h-4.4c0-5.7,5.8-7.6,10.5-8.3c6.6-1,9.7-2,9.7-6.5c0-1.6,0-6.9,0-6.9h4.4c0,0,0,5.3,0,6.8
	c0.1,8.8-8.1,10.1-13.5,10.9C25.68,36.1,23.88,37.7,23.88,39.3z"/>
<path class="st0" d="M21.68,22c-3.5,0-6.3-2.8-6.3-6.3s2.8-6.3,6.3-6.3s6.3,2.8,6.3,6.3S25.18,22,21.68,22z"/>
<path class="st0" d="M41.88,22c-3.5,0-6.3-2.8-6.3-6.3s2.8-6.3,6.3-6.3s6.3,2.8,6.3,6.3S45.38,22,41.88,22z"/>
<path class="st0" d="M21.68,56.8c-3.5,0-6.3-2.8-6.3-6.3c0-3.5,2.8-6.3,6.3-6.3s6.3,2.8,6.3,6.3C27.98,54,25.18,56.8,21.68,56.8z"/>
</svg>
