<?xml version="1.0" encoding="utf-8"?>
<!-- Generator: Adobe Illustrator 25.4.1, SVG Export Plug-In . SVG Version: 6.00 Build 0)  -->
<svg version="1.1" id="Layer_1" xmlns="http://www.w3.org/2000/svg" xmlns:xlink="http://www.w3.org/1999/xlink" x="0px" y="0px"
	 viewBox="0 0 50 50" style="enable-background:new 0 0 50 50;" xml:space="preserve">
<style type="text/css">
	.st0{fill:#FFFFFF;}
</style>
<path class="st0" d="M39.4,27.8v-3.2c0.5-0.3,0.8-0.7,0.8-1.3c0-7.6-6.9-13.8-15.4-13.8c-6.3,0-11.8,3.4-14.1,8.3
	c-0.2,0.2-0.3,0.5-0.4,0.8c-0.6,1.5-0.9,3-0.9,4.6c0,0.6,0.4,1.1,0.9,1.4v3.2c-0.9,0.3-1.5,1.1-1.5,2.1v5.6c0,1.2,1,2.2,2.2,2.2h1.5
	c0.1,1.3,1.2,2.4,2.6,2.4h0.8c1.5,0,2.7-1.1,2.6-2.6V28c0-1.4-1.2-2.6-2.6-2.6h-0.8c-0.7,0-1.3,0.3-1.8,0.8v-6.9
	c1.8-4,6.3-6.8,11.5-6.8c5.3,0,9.9,2.9,11.6,7.1c0,0,0,0.1,0,0.1v6.5c-0.5-0.5-1.1-0.8-1.8-0.8h-0.8c-1.4,0-2.6,1.2-2.6,2.6v9.5
	c-0.1,1.5,1.1,2.6,2.6,2.6h0.8c1.3,0,2.5-1.1,2.6-2.4h1.5c1.2,0,2.2-1,2.2-2.2v-5.6C40.9,28.9,40.3,28.1,39.4,27.8z"/>
</svg>
