<?xml version="1.0" encoding="utf-8"?>
<!-- Generator: Adobe Illustrator 25.4.1, SVG Export Plug-In . SVG Version: 6.00 Build 0)  -->
<svg version="1.1" id="Layer_1" xmlns="http://www.w3.org/2000/svg" xmlns:xlink="http://www.w3.org/1999/xlink" x="0px" y="0px"
	 viewBox="0 0 50 50" style="enable-background:new 0 0 50 50;" xml:space="preserve">
<style type="text/css">
	.st0{fill:#FFFFFF;}
	.st1{fill:none;stroke:#FFFFFF;stroke-width:3;stroke-linecap:round;stroke-miterlimit:10;}
</style>
<path class="st0" d="M15.9,40.1h-0.8c-1.4,0-2.6-1.2-2.6-2.6V28c0-1.4,1.2-2.6,2.6-2.6h0.8c1.4,0,2.6,1.2,2.6,2.6v9.5
	C18.6,39,17.4,40.1,15.9,40.1z"/>
<path class="st0" d="M15.2,37.7H11c-1.2,0-2.2-1-2.2-2.2v-5.6c0-1.2,1-2.2,2.2-2.2h4.2c1.2,0,2.2,1,2.2,2.2v5.6
	C17.3,36.7,16.4,37.7,15.2,37.7z"/>
<path class="st0" d="M33.8,40.1h0.8c1.4,0,2.6-1.2,2.6-2.6V28c0-1.4-1.2-2.6-2.6-2.6h-0.8c-1.4,0-2.6,1.2-2.6,2.6v9.5
	C31.1,39,32.3,40.1,33.8,40.1z"/>
<path class="st0" d="M34.5,37.7h4.2c1.2,0,2.2-1,2.2-2.2v-5.6c0-1.2-1-2.2-2.2-2.2h-4.2c-1.2,0-2.2,1-2.2,2.2v5.6
	C32.4,36.7,33.4,37.7,34.5,37.7z"/>
<line class="st1" x1="11.8" y1="32.1" x2="11.8" y2="18.8"/>
<line class="st1" x1="37.9" y1="33" x2="37.9" y2="19.7"/>
<path class="st1" d="M10.9,23.3c0-6.8,6.2-12.3,13.9-12.3s13.9,5.5,13.9,12.3"/>
</svg>
