<svg id="Layer_1" data-name="Layer 1" xmlns="http://www.w3.org/2000/svg" viewBox="0 0 68.73 37.31"><defs><style>.cls-1{fill:#fff;}.cls-2{fill:none;stroke:#fff;stroke-linecap:round;stroke-miterlimit:10;stroke-width:2.8px;}</style></defs><path class="cls-1" d="M13.23,24.15V26.7A17.38,17.38,0,0,0,30.61,44.08h34A17.38,17.38,0,0,0,82,26.7V24.15A17.38,17.38,0,0,0,64.59,6.77h-34A17.38,17.38,0,0,0,13.23,24.15Zm33.86,1.27A16.38,16.38,0,1,1,63.47,41.8,16.37,16.37,0,0,1,47.09,25.42Z" transform="translate(-13.23 -6.77)"/><path class="cls-1" d="M69.37,30.26A10.75,10.75,0,0,1,58.86,14.63a.74.74,0,0,0-1-1,12.53,12.53,0,1,0,17.27,16,.74.74,0,0,0-1.07-.92A10.66,10.66,0,0,1,69.37,30.26Z" transform="translate(-13.23 -6.77)"/><circle class="cls-2" cx="18.48" cy="19.08" r="6.27"/><line class="cls-2" x1="18.39" y1="9.27" x2="18.39" y2="6.78"/><line class="cls-2" x1="18.39" y1="31.21" x2="18.39" y2="28.72"/><line class="cls-2" x1="8.76" y1="19.08" x2="6.26" y2="19.08"/><line class="cls-2" x1="30.7" y1="19.08" x2="28.21" y2="19.08"/><line class="cls-2" x1="11.55" y1="12.2" x2="9.78" y2="10.44"/><line class="cls-2" x1="27.06" y1="27.72" x2="25.3" y2="25.96"/><line class="cls-2" x1="11.67" y1="25.95" x2="9.9" y2="27.71"/><line class="cls-2" x1="27.19" y1="10.43" x2="25.42" y2="12.2"/></svg>