<?xml version="1.0" encoding="utf-8"?>
<!-- Generator: Adobe Illustrator 25.4.1, SVG Export Plug-In . SVG Version: 6.00 Build 0)  -->
<svg version="1.1" id="Layer_1" xmlns="http://www.w3.org/2000/svg" xmlns:xlink="http://www.w3.org/1999/xlink" x="0px" y="0px"
	 viewBox="0 0 50 50" style="enable-background:new 0 0 50 50;" xml:space="preserve">
<style type="text/css">
	.st0{fill:#FFFFFF;}
</style>
<g>
	<path class="st0" d="M25.8,35.8l-2.1-0.6c-2-0.6-3.1-2.6-2.5-4.6l6.3-21.6l-2.6-1.3l-8.1,4.2L12,43.7h25.7l-3.5-23.6l-3.8,13.2
		C29.8,35.2,27.7,36.4,25.8,35.8z"/>
</g>
<path class="st0" d="M26,31.7L26,31.7c-0.5-0.2-0.8-0.7-0.7-1.2l6.9-23.7c0.2-0.5,0.7-0.8,1.2-0.7v0c0.5,0.2,0.8,0.7,0.7,1.2
	L27.2,31C27,31.5,26.5,31.8,26,31.7z"/>
</svg>
