<?xml version="1.0" encoding="utf-8"?>
<!-- Generator: Adobe Illustrator 25.4.1, SVG Export Plug-In . SVG Version: 6.00 Build 0)  -->
<svg version="1.1" id="Layer_1" xmlns="http://www.w3.org/2000/svg" xmlns:xlink="http://www.w3.org/1999/xlink" x="0px" y="0px"
	 viewBox="0 0 50 50" style="enable-background:new 0 0 50 50;" xml:space="preserve">
<style type="text/css">
	.st0{fill:#FFFFFF;}
</style>
<g>
	<path class="st0" d="M19,16.8h-6.7H5.7h-2v2v14h4v-12h2.6v12h4v-12H17l-0.2,12l4,0.1l0.2-14c0-0.5-0.2-1.1-0.6-1.4
		C20,17,19.5,16.8,19,16.8z"/>
	<rect x="22.4" y="16.8" class="st0" width="4" height="16"/>
	<path class="st0" d="M38.5,16.8H28.2v4h8.3v8h-4.4v-6.4h-4v10.4h0.1h3.9h6.4c1.1,0,2-0.9,2-2v-12C40.5,17.7,39.6,16.8,38.5,16.8z"
		/>
	<rect x="42" y="16.8" class="st0" width="4" height="16"/>
</g>
</svg>
