<?xml version="1.0" encoding="UTF-8"?>
<svg id="Layer_1" data-name="Layer 1" xmlns="http://www.w3.org/2000/svg" viewBox="0 0 589.01 902.25">
  <defs>
    <style>
      .cls-1 {
        fill: #fff;
        stroke-width: 0px;
      }
    </style>
  </defs>
  <path class="cls-1" d="m258.6,0c-5.51,6.24-.42,55.82-1.1,150.09v472.92c-27.2-22.37-62.02-35.81-99.98-35.81C70.52,587.21,0,657.73,0,744.73s70.52,157.52,157.52,157.52,157.52-70.52,157.52-157.52V225.41c57.39,46.21,135.92,63.94,184.37,128.05,82.37,108.99,21.05,255.64,35.33,255.84,0,0,79.01-118.98,46.37-218.81-6.16-18.85-44.25-131.31-126.85-185.15-15.08-9.83-88.29-65.81-102.63-86.24L258.6,0Z"/>
</svg>