<svg id="Layer_1" data-name="Layer 1" xmlns="http://www.w3.org/2000/svg" viewBox="0 0 47.84 47.84"><defs><style>.cls-1{fill:#fff;}</style></defs><path class="cls-1" d="M32.29,15.72H17.44a2.38,2.38,0,0,0-2.38,2.38V32.94a2.39,2.39,0,0,0,2.38,2.38H32.29a2.38,2.38,0,0,0,2.37-2.38V18.1A2.37,2.37,0,0,0,32.29,15.72Zm-.91,14.64A1.68,1.68,0,0,1,29.7,32H20a1.68,1.68,0,0,1-1.68-1.68V20.68A1.68,1.68,0,0,1,20,19H29.7a1.68,1.68,0,0,1,1.68,1.68Z" transform="translate(-0.95 -0.82)"/><path class="cls-1" d="M47.14,23.34a1.64,1.64,0,0,0,0-3.28h-5V17.41h5a1.64,1.64,0,1,0,0-3.28h-5v-1.7A4.14,4.14,0,0,0,38,8.28H34.88V2.45a1.64,1.64,0,0,0-3.27,0V8.28H29V2.45a1.64,1.64,0,0,0-3.27,0V8.28H23V2.45a1.64,1.64,0,0,0-3.27,0V8.28H17.09V2.45a1.64,1.64,0,0,0-3.27,0V8.28H12.06a4.15,4.15,0,0,0-4.15,4.15v1.9H2.58a1.64,1.64,0,0,0,0,3.28H7.91v2.65H2.58a1.64,1.64,0,0,0,0,3.28H7.91v2.65H2.58a1.64,1.64,0,0,0,0,3.28H7.91v2.65H2.58a1.64,1.64,0,0,0,0,3.28H7.91v2.92a4.15,4.15,0,0,0,4.15,4.15H14V47a1.64,1.64,0,0,0,3.28,0V42.47h2.65V47a1.64,1.64,0,0,0,3.28,0V42.47h2.65V47a1.64,1.64,0,0,0,3.28,0V42.47H31.8V47a1.64,1.64,0,0,0,3.28,0V42.47H38a4.14,4.14,0,0,0,4.14-4.15V35.2h5a1.64,1.64,0,1,0,0-3.27h-5V29.27h5a1.64,1.64,0,1,0,0-3.27h-5V23.34ZM37.81,34.75A3.28,3.28,0,0,1,34.53,38H15.63a3.29,3.29,0,0,1-3.29-3.29V15.85a3.28,3.28,0,0,1,3.29-3.28h18.9a3.28,3.28,0,0,1,3.28,3.28Z" transform="translate(-0.95 -0.82)"/></svg>