<?xml version="1.0" encoding="utf-8"?>
<!-- Generator: Adobe Illustrator 28.0.0, SVG Export Plug-In . SVG Version: 6.00 Build 0)  -->
<svg version="1.1" id="Layer_1" xmlns="http://www.w3.org/2000/svg" xmlns:xlink="http://www.w3.org/1999/xlink" x="0px" y="0px"
	 viewBox="0 0 64 64" style="enable-background:new 0 0 64 64;" xml:space="preserve">
<style type="text/css">
	.st0{fill:#FFFFFF;}
</style>
<g>
	<path class="st0" d="M43.01,12.69c-5-2.7-10.9-3.3-16.3-1.7c-2.6,0.8-5,2-7.1,3.7v-4.6c0-1.7-1.4-3-3.1-3s-3,1.4-3,3.1l0.1,12.7
		v0.1c0,0.1,0,0.2,0,0.3c0,0.1,0,0.2,0.1,0.3c0,0.1,0.1,0.2,0.1,0.3c0,0.1,0.1,0.2,0.1,0.3c0,0.1,0.1,0.2,0.1,0.2
		c0.1,0.1,0.1,0.2,0.2,0.2c0.1,0.1,0.1,0.1,0.2,0.2s0.1,0.1,0.2,0.2s0.1,0.1,0.2,0.2s0.2,0.1,0.3,0.2l0.1,0.1h0.1
		c0.1,0,0.2,0.1,0.3,0.1s0.2,0.1,0.3,0.1s0.2,0,0.3,0.1c0.1,0,0.2,0,0.3,0h0.1l0,0l12.6-0.1c1.7,0,3-1.4,3-3c0-1.7-1.4-3-3-3l0,0
		h-6.2c1.6-1.3,3.4-2.3,5.5-2.9c4-1.2,8.1-0.8,11.8,1.2c5,2.7,8.1,7.9,8.1,13.5c0,1.7,1.4,3,3,3l0,0c1.7,0,3-1.4,3-3
		C54.31,23.69,49.91,16.49,43.01,12.69z"/>
	<path class="st0" d="M52.31,40.19c0-0.1,0-0.2,0-0.3s0-0.2-0.1-0.3c0-0.1-0.1-0.2-0.1-0.3s-0.1-0.2-0.1-0.3s-0.1-0.2-0.1-0.3
		c-0.1-0.1-0.1-0.2-0.2-0.2c-0.1-0.1-0.1-0.2-0.2-0.2c-0.1-0.1-0.1-0.1-0.2-0.2c-0.1-0.1-0.1-0.1-0.2-0.2c-0.1-0.1-0.2-0.1-0.3-0.2
		l-0.1-0.1c0,0-0.1,0-0.1-0.1c-0.1,0-0.2-0.1-0.3-0.1s-0.2-0.1-0.3-0.1s-0.2,0-0.3-0.1c-0.1,0-0.2,0-0.3,0h-0.1l0,0l-12.5,0.1
		c-1.7,0-3,1.4-3,3.1c0,1.7,1.4,3,3,3l0,0l6.1-0.1c-4.7,3.9-11.5,4.7-17.2,1.7c-4.9-2.6-8-7.7-8.1-13.2c0-1.7-1.4-3-3.1-3
		s-3,1.4-3,3.1c0.2,7.7,4.5,14.8,11.3,18.4c3.3,1.8,6.8,2.6,10.2,2.6c4.8,0,9.6-1.6,13.4-4.6l0.1,4.7c0,1.7,1.4,3,3,3l0,0
		c1.7,0,3-1.4,3-3.1L52.31,40.19C52.31,40.29,52.31,40.29,52.31,40.19z"/>
</g>
</svg>
