<?xml version="1.0" encoding="utf-8"?>
<!-- Generator: Adobe Illustrator 28.0.0, SVG Export Plug-In . SVG Version: 6.00 Build 0)  -->
<svg version="1.1" id="Layer_1" xmlns="http://www.w3.org/2000/svg" xmlns:xlink="http://www.w3.org/1999/xlink" x="0px" y="0px"
	 viewBox="0 0 64 64" style="enable-background:new 0 0 64 64;" xml:space="preserve">
<style type="text/css">
	.st0{fill:#FFFFFF;}
</style>
<path class="st0" d="M32.81,31.78l22.7-12.8l-0.9-0.4c-3.9-1.8-6.3-1.3-8.3-0.7c-3.8,1.2-7.1,3.5-10.4,5.7c-2.4,1.6-4.8,3.3-7.4,4.5
	l-0.2,0.1c-0.4,0.4-0.8,0.9-1.3,1.3l-3.4-1.3c0.2-0.3,0.4-0.6,0.5-1c0.6-1.7,0.4-3.7-0.8-5.5c-2.2-3.6-7.2-5.5-11.1-4.3
	c-1.9,0.6-3.3,1.8-3.9,3.4c-0.6,1.7-0.4,3.7,0.8,5.5c1.8,2.9,5.3,4.7,8.7,4.7c0.8,0,1.6-0.1,2.4-0.3c1.1,0.5,2.2,1,3.2,1.5
	c-0.9,0.6-2,1.2-3,1.7c-3.9-0.8-8.7,1.5-10.7,5.2c-1,1.9-1.1,3.9-0.4,5.6c0.7,1.6,2.2,2.7,4.1,3.1c0.6,0.1,1.1,0.2,1.7,0.2
	c3.5,0,7.3-2.2,9-5.4c1-1.9,1.1-3.9,0.4-5.6c-0.2-0.3-0.4-0.6-0.6-0.9l3.2-1.5c0.5,0.4,1,0.8,1.4,1.2l0.2,0.1c2.6,0.9,5,2.2,7.4,3.5
	c3.5,1.8,7.1,3.7,11,4.6c0.8,0.2,1.6,0.3,2.6,0.3c1.5,0,3.3-0.4,5.6-1.7l0.9-0.5L32.81,31.78z M18.81,27.78
	c-2.3,0.7-5.3-0.5-6.6-2.6c-0.6-1-0.8-2.1-0.5-3s1.1-1.5,2.1-1.8c0.5-0.1,0.9-0.2,1.4-0.2c2,0,4.1,1.1,5.2,2.8c0.6,1,0.8,2.1,0.5,3
	C20.51,26.88,19.81,27.48,18.81,27.78z M18.11,36.88c0.3,0,0.7,0,1,0.1c1,0.2,1.8,0.8,2.2,1.6c0.4,0.9,0.3,2-0.2,3.1
	c-1.2,2.2-4.1,3.7-6.4,3.1c-1-0.2-1.8-0.8-2.2-1.6c-0.4-0.9-0.3-2,0.2-3.1C13.81,38.18,16.01,36.88,18.11,36.88z"/>
</svg>
