<?xml version="1.0" encoding="utf-8"?>
<!-- Generator: Adobe Illustrator 25.4.1, SVG Export Plug-In . SVG Version: 6.00 Build 0)  -->
<svg version="1.1" id="Layer_1" xmlns="http://www.w3.org/2000/svg" xmlns:xlink="http://www.w3.org/1999/xlink" x="0px" y="0px"
	 viewBox="0 0 50 50" style="enable-background:new 0 0 50 50;" xml:space="preserve">
<style type="text/css">
	.st0{fill:none;stroke:#FFFFFF;stroke-width:1.7;stroke-linecap:round;stroke-miterlimit:10;}
</style>
<line class="st0" x1="24.9" y1="9.5" x2="24.9" y2="30.4"/>
<polyline class="st0" points="20,11.1 24.9,15.4 29.7,11 "/>
<line class="st0" x1="24.9" y1="40.1" x2="24.9" y2="19.2"/>
<polyline class="st0" points="20,38.5 24.9,34.2 29.7,38.5 "/>
<line class="st0" x1="11.6" y1="17.5" x2="29.7" y2="27.9"/>
<polyline class="st0" points="10.5,22.5 16.6,20.4 15.3,14 "/>
<line class="st0" x1="38.1" y1="32.7" x2="19.9" y2="22.3"/>
<polyline class="st0" points="34.3,36.1 33,29.8 39.1,27.8 "/>
<line class="st0" x1="38.1" y1="17.4" x2="20" y2="27.9"/>
<polyline class="st0" points="34.3,14 33,20.4 39.2,22.4 "/>
<line class="st0" x1="11.6" y1="32.7" x2="29.7" y2="22.3"/>
<polyline class="st0" points="10.6,27.7 16.7,29.8 15.4,36.1 "/>
</svg>
