<?xml version="1.0" encoding="utf-8"?>
<!-- Generator: Adobe Illustrator 28.0.0, SVG Export Plug-In . SVG Version: 6.00 Build 0)  -->
<svg version="1.1" id="Layer_1" xmlns="http://www.w3.org/2000/svg" xmlns:xlink="http://www.w3.org/1999/xlink" x="0px" y="0px"
	 viewBox="0 0 64 64" style="enable-background:new 0 0 64 64;" xml:space="preserve">
<style type="text/css">
	.st0{fill:#FFFFFF;}
</style>
<path class="st0" d="M40.71,33.94c-2.2-1.4-4.8-2-7-1.6c-0.5-1.3-1-2.5-1.4-3.7c0.2-0.1,0.4-0.2,0.5-0.3c2.4-1.5,2.5-1.3,3.4-1.9
	c5.8-4.2,2.2-11.2,1.7-12.7c-0.2-0.5-1.3-3-3.6-5.7c-0.8-0.9-1.7-1.8-3.1-2c-0.5-0.1-1.2-0.1-1.6,0.1c-2.4,0.8-4,6.7-2.3,13.9
	c0.3,1.1-0.3-0.3,2.3,6c-4.4,3.3-9.7,7.2-7.3,13.1c2.5,6.2,9.1,7.1,13.9,6.5c0.2,1.2,0.3,2.6,0.5,4.2c0.1,1,0.2,1.4-0.2,3.4
	c-0.3,1.5-1,2-2.2,2.3c-1.5,0.4-1.9-0.2-2.5-0.6c1.5-0.4,1.4-1.1,1.4-2.5c0-1.8-1.6-3.2-3.6-3.2s-3.6,1.4-3.6,3.2
	c0,1.2,0.7,2.2,1.8,2.8c2.4,1.9,6,1.5,7.4,1.1c2.3-0.8,3.3-2.5,2.7-7.4c-0.1-1.2-0.3-2.3-0.5-3.4c1.5-0.3,2.8-0.8,3.5-1.2
	C43.21,42.44,46.01,37.24,40.71,33.94z M30.71,21.64c-0.3-2.9,0.1-6.5,0.4-7.5c0.6-2.7,1-3.2,1.7-3.6c0.7-0.4,1.3,0,1.7,0.5
	c1.8,2.4,2.4,5.7,0.3,10.1c-0.5,1.1-1.9,2.3-3.6,3.6C31.01,23.74,30.91,22.74,30.71,21.64z M32.61,44.74c-4.3-0.1-6.8-3-7.2-3.5
	c-2.2-2.5-1.8-6.5,0.7-8.6c1.2-1,2.6-1.9,5-3.3c0.1,0.1,0.1,0.3,0.2,0.4c0.3,0.6,0.7,1.7,1.2,3c-1.7,0.6-3.1,2-3.7,4.2
	c-0.2,0.6-0.2,1.2-0.1,1.8c0.3,2.1,2.7,3,3,2.9c0.4-0.1-2.7-1.9-1.4-4.9c0.1-0.1,1-1.6,2.9-2.1c0.7,2,1.6,4.5,2.4,7.2
	c0.2,0.8,0.4,1.7,0.6,2.7C34.51,44.74,32.91,44.74,32.61,44.74z M40.91,42.64c-0.8,0.8-2.2,1.3-3.6,1.7c-0.8-4-1.8-7.1-2.8-9.9
	c2.7,0,5.3,1.9,6.5,3.6C41.51,38.44,42.71,40.74,40.91,42.64z"/>
</svg>
