<?xml version="1.0" encoding="utf-8"?>
<!-- Generator: Adobe Illustrator 25.4.1, SVG Export Plug-In . SVG Version: 6.00 Build 0)  -->
<svg version="1.1" id="Layer_1" xmlns="http://www.w3.org/2000/svg" xmlns:xlink="http://www.w3.org/1999/xlink" x="0px" y="0px"
	 viewBox="0 0 50 50" style="enable-background:new 0 0 50 50;" xml:space="preserve">
<style type="text/css">
	.st0{fill:#FFFFFF;stroke:#FFFFFF;stroke-miterlimit:10;}
</style>
<path class="st0" d="M21.1,19.3v0.4c-0.7,0.1-1.2,0.2-1.5,0.4c-0.5,0.3-0.9,0.8-1.3,1.4l-6.7,11.1H11L3.9,21.4
	c-0.4-0.6-0.6-0.9-0.8-1.1c-0.2-0.2-0.5-0.4-0.9-0.5c-0.3-0.1-0.8-0.2-1.4-0.2v-0.4h7.8v0.4c-0.9,0.1-1.5,0.2-1.7,0.3
	c-0.3,0.1-0.4,0.3-0.4,0.6c0,0.3,0.2,0.8,0.6,1.5l4.9,7.7l4.5-7.6c0.4-0.7,0.7-1.3,0.7-1.6c0-0.2-0.1-0.4-0.4-0.5
	c-0.3-0.2-0.7-0.3-1.4-0.4c0,0-0.1,0-0.2,0v-0.4H21.1z"/>
<path class="st0" d="M34.5,15.5v6.2h-0.8c-0.3-1.2-0.7-2.1-1.4-2.8c-0.7-0.7-1.7-1.3-3-1.7c-1.3-0.4-2.6-0.6-4-0.6
	c-1.6,0-2.8,0.3-3.8,0.8c-1,0.6-1.5,1.2-1.5,1.9c0,0.5,0.3,1,1,1.5c0.9,0.7,3.1,1.5,6.6,2.6c2.8,0.9,4.8,1.6,5.8,2.1
	c1,0.5,1.8,1,2.4,1.7c0.6,0.7,0.8,1.3,0.8,2c0,1.4-0.9,2.5-2.7,3.5c-1.8,1-4.1,1.5-6.9,1.5c-0.9,0-1.7,0-2.5-0.1
	c-0.5,0-1.4-0.2-2.9-0.5s-2.4-0.4-2.8-0.4c-0.4,0-0.7,0.1-0.9,0.2c-0.2,0.1-0.4,0.4-0.5,0.8h-0.8V28h0.8c0.4,1.3,0.9,2.2,1.6,2.9
	s1.7,1.2,3,1.6c1.4,0.4,2.8,0.6,4.4,0.6c1.9,0,3.3-0.3,4.4-0.9c1.1-0.6,1.6-1.3,1.6-2.1c0-0.4-0.2-0.9-0.6-1.3
	c-0.4-0.4-1-0.9-1.9-1.3c-0.6-0.3-2.2-0.8-4.8-1.7s-4.4-1.5-5.5-2c-1.1-0.5-1.9-1.1-2.5-1.7c-0.6-0.6-0.9-1.3-0.9-2
	c0-1.3,0.8-2.4,2.5-3.3c1.7-0.9,3.8-1.4,6.4-1.4c1.6,0,3.3,0.2,5.1,0.7c0.8,0.2,1.4,0.3,1.8,0.3c0.4,0,0.7-0.1,1-0.2
	c0.2-0.1,0.4-0.4,0.6-0.8H34.5z"/>
<path class="st0" d="M48.7,18.5l0.2,3.1h-0.5c-0.1-0.5-0.2-0.9-0.4-1.2c-0.3-0.4-0.7-0.6-1.2-0.8c-0.5-0.2-1.1-0.3-1.9-0.3h-2.7v10
	c0,0.8,0.1,1.3,0.4,1.5c0.4,0.3,0.9,0.4,1.6,0.4h0.7v0.4h-8.1v-0.4h0.7c0.8,0,1.4-0.2,1.7-0.5c0.2-0.2,0.3-0.7,0.3-1.4v-10h-2.3
	c-0.9,0-1.5,0-1.9,0.1c-0.5,0.1-0.9,0.4-1.3,0.7s-0.6,0.8-0.6,1.4h-0.5l0.2-3.1H48.7z"/>
</svg>
