<?xml version="1.0" encoding="UTF-8"?>
<svg id="Layer_1" data-name="Layer 1" xmlns="http://www.w3.org/2000/svg" viewBox="0 0 62.83 63.07">
  <defs>
    <style>
      .cls-1 {
        fill: #fff;
        stroke-width: 0px;
      }
    </style>
  </defs>
  <path class="cls-1" d="m59.77,36.03l-2.48,21.77c-10.83,8.68-17.02,5.21-25.29-.37l2.53-22.25c8.33,5.63,14.49,9.28,25.24.84Z"/>
  <path class="cls-1" d="m29.02,33.97l-2.53,22.29c-5.9-4.72-14.47-12.71-26.49-1.84l2.47-21.75c12.01-11.17,20.6-3.49,26.55,1.3Z"/>
  <path class="cls-1" d="m35.18,29.45l2.41-21.16c8.33,5.63,14.49,9.28,25.24.84l-2.41,21.16c-10.75,8.43-16.9,4.79-25.24-.84Z"/>
  <path class="cls-1" d="m3.12,26.92L5.53,5.76c12.01-11.17,20.6-3.49,26.55,1.3l-2.41,21.16c-5.95-4.79-14.54-12.47-26.55-1.3Z"/>
</svg>